<?xml version="1.0" encoding="UTF-8" standalone="no"?>
<!-- Created with Inkscape (http://www.inkscape.org/) -->

<svg
   xmlns:dc="http://purl.org/dc/elements/1.1/"
   xmlns:cc="http://creativecommons.org/ns#"
   xmlns:rdf="http://www.w3.org/1999/02/22-rdf-syntax-ns#"
   xmlns:svg="http://www.w3.org/2000/svg"
   xmlns="http://www.w3.org/2000/svg"
   xmlns:sodipodi="http://sodipodi.sourceforge.net/DTD/sodipodi-0.dtd"
   xmlns:inkscape="http://www.inkscape.org/namespaces/inkscape"
   width="18.062222mm"
   height="18.062222mm"
   viewBox="0 0 63.999998 63.999997"
   id="svg2"
   version="1.1"
   inkscape:version="0.91 r13725"
   sodipodi:docname="about-me.svg">
  <defs
     id="defs4">
    <linearGradient
       y2="1"
       x2="0"
       y1="0"
       x1="0"
       id="AboutMeBaseGradient">
      <stop
         id="stop3341"
         offset="0"
         stop-color="#004f75" />
      <stop
         id="stop3343"
         offset="0.6065"
         stop-color="#003049" />
    </linearGradient>
    <linearGradient
       y2="1"
       x2="0"
       y1="0"
       x1="0"
       id="AboutMeInnerOutline">
      <stop
         id="stop3346"
         offset="0.45"
         stop-opacity="0"
         stop-color="#004f75" />
      <stop
         id="stop3348"
         offset="1"
         stop-opacity="1"
         stop-color="#19445b" />
    </linearGradient>
    <linearGradient
       y2="1"
       x2="0"
       y1="0"
       x1="0"
       id="AboutMeHighlight">
      <stop
         id="stop3351"
         offset="0"
         stop-color="#4c829d" />
      <stop
         id="stop3353"
         offset="1"
         stop-color="#0c5476" />
    </linearGradient>
    <linearGradient
       y2="1"
       x2="0"
       y1="0"
       x1="0"
       id="AboutMeTextOutline">
      <stop
         id="stop3356"
         offset="0"
         stop-color="#003c5b" />
      <stop
         id="stop3358"
         offset="1"
         stop-color="#00223e" />
    </linearGradient>
  </defs>
  <sodipodi:namedview
     id="base"
     pagecolor="#ffffff"
     bordercolor="#666666"
     borderopacity="1.0"
     inkscape:pageopacity="0.0"
     inkscape:pageshadow="2"
     inkscape:zoom="11.2"
     inkscape:cx="45.324819"
     inkscape:cy="33.697369"
     inkscape:document-units="px"
     inkscape:current-layer="g3388"
     showgrid="false"
     inkscape:window-width="1920"
     inkscape:window-height="1021"
     inkscape:window-x="1920"
     inkscape:window-y="27"
     inkscape:window-maximized="1"
     fit-margin-top="0"
     fit-margin-left="0"
     fit-margin-right="0"
     fit-margin-bottom="2.7755576e-17" />
  <metadata
     id="metadata7">
    <rdf:RDF>
      <cc:Work
         rdf:about="">
        <dc:format>image/svg+xml</dc:format>
        <dc:type
           rdf:resource="http://purl.org/dc/dcmitype/StillImage" />
        <dc:title></dc:title>
      </cc:Work>
    </rdf:RDF>
  </metadata>
  <g
     inkscape:label="Layer 1"
     inkscape:groupmode="layer"
     id="layer1"
     transform="translate(-259.42867,-420.3625)">
    <g
       id="g3388"
       transform="translate(259.42827,420.3619)">
      <g
         id="g4220">
        <path
           style="fill:#165cb2;fill-opacity:1;stroke:none;stroke-opacity:1"
           inkscape:connector-curvature="0"
           d="m 5.1834,6e-4 c -2.858,0 -5.183,2.324 -5.183,5.182 l 0,0 0,53.636 c 0,2.857 2.325,5.182 5.183,5.182 l 0,0 53.633,0 c 2.859,0 5.184,-2.325 5.184,-5.182 l 0,0 0,-53.636 c 0,-2.858 -2.325,-5.182 -5.184,-5.182 l 0,0 -53.633,0 z"
           id="path3360" />
        <path
           style="fill:#ffffff"
           inkscape:connector-curvature="0"
           d="m 46.4415,26.0519 c -2.652,0 -4.116,1.954 -4.43,4.081 l 8.893,0 c -0.244,-2.023 -1.673,-4.081 -4.463,-4.081 m -4.36,6.976 c 0.454,2.231 2.301,3.801 4.882,3.801 1.396,0 3.417,-0.522 4.605,-1.744 l 2.265,2.616 c -2.058,2.162 -5.125,2.755 -7.218,2.755 -5.092,0 -9.069,-3.662 -9.069,-8.894 0,-4.882 3.662,-8.892 8.825,-8.892 4.987,0 8.683,3.836 8.683,8.892 l 0,1.466 -12.973,0 z m -12.522,6.974 0,-10.568 c 0,-1.882 -0.837,-2.964 -2.581,-2.964 -1.568,0 -2.615,1.117 -3.312,1.92 l 0,11.612 -4.534,0 0,-10.568 c 0,-1.882 -0.802,-2.964 -2.546,-2.964 -1.569,0 -2.65,1.117 -3.313,1.92 l 0,11.612 -4.535,0 0,-16.844 4.535,0 0,1.953 c 0.768,-0.907 2.512,-2.441 5.23,-2.441 2.407,0 4.046,1.012 4.78,3.069 1.01,-1.464 2.893,-3.069 5.615,-3.069 3.277,0 5.195,1.952 5.195,5.72 l 0,11.612 -4.534,0 z"
           id="path3370" />
      </g>
    </g>
  </g>
</svg>
